# xmcd
#
# Track frame offsets: 
#        150
#        1135
#        13617
#        35980
#        57757
#        77540
#        94007
#        116532
#        130320
#        151340
#        168090
#        179035
#        195167
#        209575
#
# Disc length: 3011 seconds
#
# Revision: 2
# Processed by: cddbd v1.5.2PL0 Copyright (c) Steve Scherf et al.
# Submitted via: ExactAudioCopy v0.99pb5
#
DISCID=ad0bc10e
DTITLE=Various Artist - My Name Is Earl - The Album
DYEAR=2006
DGENRE=Soundtrack
TTITLE0=I'm the Bandit
TTITLE1=Jerry Reed - East Bound and Down
TTITLE2=Uncle Kracker - The Weight
TTITLE3=Los Lobos - One Time One Night
TTITLE4=Young M.C. - Bust a Move
TTITLE5=Matthew Sweet - Livin' Thing
TTITLE6=Rob Base and D.J. E-Z Rock - It Takes Two
TTITLE7=Sammy Davis, Jr. - Smoke! Smoke! Smoke! (That Cigarette)
TTITLE8=Lynyrd Skynyrd - Gimme Three Steps
TTITLE9=Harry Nilsson - Joy
TTITLE10=Jerry Reed - Amos Moses
TTITLE11=John Hiatt - Instant Karma
TTITLE12=Nescobar-a-lop-lop and the Camden Country Band - What Goes Ar
TTITLE12=ound Comes Around (Earl's Theme) [vocal version]
TTITLE13=Van Nuys - 99 Red Ballons
EXTD=
EXTT0=
EXTT1=
EXTT2=
EXTT3=
EXTT4=
EXTT5=
EXTT6=
EXTT7=
EXTT8=
EXTT9=
EXTT10=
EXTT11=
EXTT12=
EXTT13=
PLAYORDER=
